<?xml version="1.0" encoding="utf-8"?>
<!-- Generator: Adobe Illustrator 19.2.1, SVG Export Plug-In . SVG Version: 6.00 Build 0)  -->
<svg version="1.1" id="Layer_1" xmlns="http://www.w3.org/2000/svg" xmlns:xlink="http://www.w3.org/1999/xlink" x="0px" y="0px"
	 viewBox="0 0 276.7 32" style="enable-background:new 0 0 276.7 32;" xml:space="preserve" width="280px" height="32px">
<style type="text/css">
	.st0{fill:#283C49;}
	.st1{fill:#049CFF;}
	.st2{fill:#FFFFFF;}
	.st3{fill:#889499;}
</style>
<g id="XMLID_1862_">
	<g id="XMLID_1814_">
		<path id="XMLID_1841_" class="st0" d="M65.5,17.1c0,1.4-0.3,2.4-0.9,3C64,20.7,63.2,21,62.1,21c-1.1,0-2-0.3-2.5-0.9
			c-0.6-0.6-0.8-1.6-0.8-3v-6.9h-3v6.9c0,1.1,0.2,2.1,0.4,2.9c0.3,0.8,0.7,1.5,1.3,2.1c0.6,0.6,1.2,1,2,1.2c0.8,0.3,1.6,0.4,2.6,0.4
			c0.9,0,1.8-0.1,2.6-0.4c0.8-0.3,1.5-0.7,2-1.2c0.6-0.6,1-1.3,1.3-2.1c0.3-0.8,0.4-1.8,0.4-2.9v-6.9h-3V17.1z"/>
		<path id="XMLID_1838_" class="st0" d="M114.9,11.9c-0.6-0.6-1.4-1.1-2.3-1.5c-0.9-0.4-1.8-0.5-2.8-0.5c-1,0-2,0.2-2.8,0.5
			c-0.9,0.4-1.6,0.9-2.3,1.5c-0.6,0.6-1.1,1.4-1.5,2.2c-0.4,0.8-0.5,1.8-0.5,2.7s0.2,1.9,0.5,2.7s0.9,1.6,1.5,2.2
			c0.6,0.6,1.4,1.1,2.3,1.5c0.9,0.4,1.8,0.5,2.8,0.5c1,0,2-0.2,2.8-0.5c0.9-0.4,1.6-0.9,2.3-1.5c0.6-0.6,1.1-1.4,1.5-2.2
			c0.4-0.8,0.5-1.8,0.5-2.7c0-1-0.2-1.9-0.5-2.7C116.1,13.3,115.6,12.6,114.9,11.9z M114,16.9c0,0.6-0.1,1.2-0.3,1.7
			c-0.2,0.5-0.5,0.9-0.9,1.3c-0.4,0.4-0.8,0.7-1.3,0.9s-1,0.3-1.6,0.3c-0.6,0-1.1-0.1-1.6-0.3c-0.5-0.2-0.9-0.5-1.3-0.9
			c-0.4-0.4-0.7-0.8-0.9-1.3c-0.2-0.5-0.3-1.1-0.3-1.7c0-0.6,0.1-1.1,0.3-1.6c0.2-0.5,0.5-0.9,0.9-1.3c0.4-0.4,0.8-0.7,1.3-0.9
			c0.5-0.2,1-0.3,1.6-0.3c0.6,0,1.1,0.1,1.6,0.3c0.5,0.2,0.9,0.5,1.3,0.9s0.7,0.8,0.9,1.3C113.9,15.7,114,16.3,114,16.9z"/>
		<path id="XMLID_1837_" class="st0" d="M134.3,6.1h-3v4.1h-2.1v2.8h2.1v5.3c0,1,0.1,1.8,0.4,2.5c0.2,0.7,0.6,1.2,1.1,1.7
			c0.5,0.4,1,0.7,1.6,0.9c0.6,0.2,1.2,0.3,1.9,0.3h2v-2.7h-1.9c-0.3,0-0.6,0-0.8-0.1c-0.2-0.1-0.4-0.2-0.6-0.4s-0.3-0.4-0.4-0.8
			c-0.1-0.4-0.2-0.8-0.2-1.4v-5.3h3.9v-2.8h-3.9L134.3,6.1L134.3,6.1z"/>
		<path id="XMLID_1834_" class="st0" d="M172.4,11.9c-0.6-0.6-1.4-1.1-2.3-1.5c-0.9-0.4-1.8-0.5-2.8-0.5c-1,0-2,0.2-2.8,0.5
			c-0.9,0.4-1.6,0.9-2.3,1.5c-0.6,0.6-1.1,1.4-1.5,2.2c-0.4,0.8-0.5,1.8-0.5,2.7s0.2,1.9,0.5,2.7c0.4,0.8,0.9,1.6,1.5,2.2
			c0.6,0.6,1.4,1.1,2.3,1.5c0.9,0.4,1.8,0.5,2.8,0.5s2-0.2,2.8-0.5c0.9-0.4,1.6-0.9,2.3-1.5c0.6-0.6,1.1-1.4,1.5-2.2
			c0.4-0.8,0.5-1.8,0.5-2.7c0-1-0.2-1.9-0.5-2.7C173.6,13.3,173.1,12.6,172.4,11.9z M171.5,16.9c0,0.6-0.1,1.2-0.3,1.7
			c-0.2,0.5-0.5,0.9-0.9,1.3s-0.8,0.7-1.3,0.9c-0.5,0.2-1,0.3-1.6,0.3s-1.1-0.1-1.6-0.3c-0.5-0.2-0.9-0.5-1.3-0.9
			c-0.4-0.4-0.7-0.8-0.9-1.3c-0.2-0.5-0.3-1.1-0.3-1.7c0-0.6,0.1-1.1,0.3-1.6c0.2-0.5,0.5-0.9,0.9-1.3s0.8-0.7,1.3-0.9
			s1-0.3,1.6-0.3s1.1,0.1,1.6,0.3c0.5,0.2,0.9,0.5,1.3,0.9s0.7,0.8,0.9,1.3C171.4,15.7,171.5,16.3,171.5,16.9z"/>
		<path id="XMLID_1831_" class="st0" d="M100.8,14.1c-0.4-0.8-0.9-1.6-1.5-2.2c-0.6-0.6-1.4-1.1-2.3-1.5c-0.9-0.4-1.8-0.5-2.8-0.5
			c-1,0-2,0.2-2.8,0.5c-0.5,0.2-0.9,0.4-1.3,0.7v-0.9h-3v17.3h3v-5c0.4,0.3,0.8,0.5,1.3,0.7c0.9,0.4,1.8,0.5,2.8,0.5
			c1,0,2-0.2,2.8-0.5c0.9-0.4,1.6-0.9,2.3-1.5c0.6-0.6,1.1-1.4,1.5-2.2s0.5-1.8,0.5-2.7C101.4,15.9,101.2,15,100.8,14.1z M98.1,18.5
			c-0.2,0.5-0.5,0.9-0.9,1.3c-0.4,0.4-0.8,0.7-1.3,0.9c-0.5,0.2-1,0.3-1.6,0.3s-1.1-0.1-1.6-0.3c-0.5-0.2-0.9-0.5-1.3-0.9
			c-0.4-0.4-0.7-0.8-0.9-1.3c-0.2-0.5-0.3-1.1-0.3-1.7c0-0.6,0.1-1.1,0.3-1.6c0.2-0.5,0.5-0.9,0.9-1.3c0.4-0.4,0.8-0.7,1.3-0.9
			c0.5-0.2,1-0.3,1.6-0.3c0.6,0,1.1,0.1,1.6,0.3c0.5,0.2,0.9,0.5,1.3,0.9s0.7,0.8,0.9,1.3c0.2,0.5,0.3,1.1,0.3,1.6
			C98.4,17.4,98.3,18,98.1,18.5z"/>
		<path id="XMLID_1828_" class="st0" d="M84.5,14.1c-0.4-0.8-0.9-1.6-1.5-2.2c-0.6-0.6-1.4-1.1-2.3-1.5c-0.9-0.4-1.8-0.5-2.8-0.5
			c-1,0-2,0.2-2.8,0.5c-0.5,0.2-0.9,0.4-1.3,0.7v-0.9h-3v17.3h3v-5c0.4,0.3,0.8,0.5,1.3,0.7c0.9,0.4,1.8,0.5,2.8,0.5
			c1,0,2-0.2,2.8-0.5c0.9-0.4,1.6-0.9,2.3-1.5c0.6-0.6,1.1-1.4,1.5-2.2s0.5-1.8,0.5-2.7C85.1,15.9,84.9,15,84.5,14.1z M81.8,18.5
			c-0.2,0.5-0.5,0.9-0.9,1.3c-0.4,0.4-0.8,0.7-1.3,0.9c-0.5,0.2-1,0.3-1.6,0.3c-0.6,0-1.1-0.1-1.6-0.3c-0.5-0.2-0.9-0.5-1.3-0.9
			c-0.4-0.4-0.7-0.8-0.9-1.3c-0.2-0.5-0.3-1.1-0.3-1.7c0-0.6,0.1-1.1,0.3-1.6c0.2-0.5,0.5-0.9,0.9-1.3c0.4-0.4,0.8-0.7,1.3-0.9
			s1-0.3,1.6-0.3c0.6,0,1.1,0.1,1.6,0.3c0.5,0.2,0.9,0.5,1.3,0.9s0.7,0.8,0.9,1.3c0.2,0.5,0.3,1.1,0.3,1.6
			C82.1,17.4,82,18,81.8,18.5z"/>
		<path id="XMLID_1825_" class="st0" d="M187.2,10.2v1.1c-0.3-0.3-0.7-0.5-1.1-0.7c-0.5-0.2-0.9-0.4-1.5-0.5
			c-0.5-0.1-1.1-0.2-1.7-0.2c-1,0-2,0.2-2.8,0.5c-0.9,0.4-1.6,0.9-2.2,1.5c-0.6,0.6-1.1,1.4-1.5,2.2c-0.4,0.8-0.5,1.7-0.5,2.7
			c0,1,0.2,1.9,0.5,2.7c0.4,0.8,0.8,1.6,1.5,2.2c0.6,0.6,1.4,1.1,2.2,1.5c0.9,0.4,1.8,0.5,2.8,0.5c0.6,0,1.1-0.1,1.7-0.2
			c0.5-0.1,1-0.3,1.5-0.6c0.4-0.2,0.7-0.4,1.1-0.7v1.1h3V10.2l0,0H187.2z M186.1,19.8c-0.4,0.4-0.8,0.7-1.3,0.9
			c-0.5,0.2-1.1,0.3-1.6,0.3c-0.6,0-1.1-0.1-1.6-0.3c-0.5-0.2-1-0.5-1.3-0.9c-0.4-0.4-0.7-0.8-0.9-1.3c-0.2-0.5-0.3-1.1-0.3-1.7
			c0-0.6,0.1-1.1,0.3-1.6c0.2-0.5,0.5-0.9,0.9-1.3c0.4-0.4,0.8-0.7,1.3-0.9c0.5-0.2,1.1-0.3,1.6-0.3c0.6,0,1.1,0.1,1.6,0.3
			c0.5,0.2,1,0.5,1.3,0.9c0.4,0.4,0.7,0.8,0.9,1.3c0.2,0.5,0.3,1.1,0.3,1.6c0,0.6-0.1,1.2-0.3,1.7C186.7,19,186.4,19.5,186.1,19.8z"
			/>
		<path id="XMLID_1824_" class="st0" d="M199.2,10.2c-0.5,0-1.1,0.1-1.5,0.2c-0.5,0.1-0.9,0.3-1.3,0.5c-0.3,0.1-0.5,0.3-0.7,0.4
			v-1.1h-0.4l0,0h-2.6l0,0v13.2h3h0v-6.9c0-0.5,0.1-1,0.3-1.4c0.2-0.5,0.4-0.9,0.7-1.2c0.3-0.3,0.7-0.5,1.1-0.7
			c0.5-0.2,1-0.2,1.5-0.2h1.9v-2.8H199.2z"/>
		<path id="XMLID_1823_" class="st0" d="M53.2,15.5c-0.3-0.4-0.7-0.7-1.1-0.9c-0.4-0.2-0.8-0.4-1.3-0.6c-0.4-0.2-0.9-0.3-1.4-0.4
			c-0.5-0.1-0.9-0.2-1.4-0.3h0c-0.7-0.1-1.2-0.2-1.8-0.3c-0.5-0.1-0.9-0.2-1.3-0.4c-0.3-0.2-0.6-0.4-0.7-0.6
			c-0.2-0.2-0.2-0.5-0.2-0.8c0-0.3,0-0.6,0.2-0.9c0.1-0.3,0.3-0.5,0.5-0.7c0.2-0.2,0.6-0.4,1-0.5c0.4-0.2,1-0.2,1.8-0.2
			c0.5,0,1,0.1,1.4,0.2c0.4,0.1,0.7,0.3,1,0.5c0.3,0.2,0.4,0.4,0.6,0.7c0.1,0.3,0.2,0.6,0.2,0.9v0.6h3v-0.6c0-0.7-0.1-1.4-0.4-2
			c-0.3-0.6-0.7-1.2-1.2-1.6c-0.5-0.4-1.2-0.8-1.9-1c-0.7-0.2-1.6-0.4-2.5-0.4c-1.2,0-2.2,0.1-3,0.4c-0.8,0.3-1.5,0.7-2.1,1.2
			s-0.9,1.1-1.2,1.7c-0.2,0.6-0.4,1.3-0.4,2c0,0.6,0.1,1.1,0.3,1.6c0.2,0.5,0.5,0.9,0.8,1.2c0.3,0.3,0.7,0.6,1.2,0.8
			c0.4,0.2,0.8,0.4,1.3,0.5c0.4,0.1,0.9,0.2,1.3,0.3c0.4,0.1,0.9,0.1,1.2,0.2c0.6,0.1,1.2,0.2,1.8,0.4c0.5,0.1,1,0.3,1.3,0.5
			c0.3,0.2,0.6,0.4,0.8,0.7c0.2,0.3,0.3,0.6,0.3,1c0,0.8-0.3,1.4-0.9,1.8c-0.7,0.5-1.5,0.7-3,0.7c-0.5,0-1-0.1-1.5-0.2
			s-0.8-0.4-1.2-0.6c-0.3-0.3-0.6-0.5-0.8-0.9c-0.2-0.3-0.3-0.6-0.3-0.9v-1h-3v1c0,0.7,0.2,1.4,0.5,2c0.3,0.7,0.7,1.2,1.3,1.8
			c0.6,0.5,1.3,0.9,2.1,1.2c0.8,0.3,1.8,0.5,2.8,0.5c1.1,0,1.9-0.1,2.7-0.3c0.9-0.2,1.6-0.6,2.3-1c0.6-0.5,1.1-1,1.5-1.7
			c0.3-0.7,0.5-1.4,0.5-2.2c0-0.6-0.1-1.2-0.3-1.7C53.8,16.4,53.5,15.9,53.2,15.5z"/>
		<path id="XMLID_1820_" class="st0" d="M202.3,19.6c0.4,0.8,0.9,1.6,1.5,2.2c0.6,0.6,1.4,1.1,2.3,1.5c0.9,0.4,1.8,0.5,2.8,0.5
			c1,0,2-0.2,2.8-0.5c0.5-0.2,0.9-0.4,1.3-0.7v0.9h3V6.1h-3v5c-0.4-0.3-0.8-0.5-1.3-0.7c-0.9-0.4-1.8-0.5-2.8-0.5
			c-1,0-2,0.2-2.8,0.5c-0.9,0.4-1.6,0.9-2.3,1.5c-0.6,0.6-1.1,1.4-1.5,2.2s-0.5,1.8-0.5,2.7C201.8,17.8,202,18.7,202.3,19.6z
			 M205.1,15.2c0.2-0.5,0.5-0.9,0.9-1.3c0.4-0.4,0.8-0.7,1.3-0.9c0.5-0.2,1-0.3,1.6-0.3s1.1,0.1,1.6,0.3c0.5,0.2,0.9,0.5,1.3,0.9
			c0.4,0.4,0.7,0.8,0.9,1.3c0.2,0.5,0.3,1.1,0.3,1.7c0,0.6-0.1,1.1-0.3,1.6c-0.2,0.5-0.5,0.9-0.9,1.3c-0.4,0.4-0.8,0.7-1.3,0.9
			c-0.5,0.2-1,0.3-1.6,0.3s-1.1-0.1-1.6-0.3c-0.5-0.2-0.9-0.5-1.3-0.9s-0.7-0.8-0.9-1.3c-0.2-0.5-0.3-1.1-0.3-1.6
			C204.8,16.2,204.9,15.7,205.1,15.2z"/>
		<path id="XMLID_1816_" class="st0" d="M158.7,11.2c0-2.8-2.2-5.1-5-5.1h-8.2v17.3h8.2c2.8,0,5-2.3,5-5.1c0-1.4-0.6-2.7-1.5-3.6
			C158.1,13.9,158.7,12.6,158.7,11.2z M153.7,8.9c1.2,0,2.3,1,2.3,2.3s-1,2.3-2.3,2.3h-5.2V8.9H153.7z M153.7,20.7h-5.2v-4.6h5.2
			c1.2,0,2.3,1,2.3,2.3C155.9,19.7,154.9,20.7,153.7,20.7z"/>
		<path id="XMLID_1815_" class="st0" d="M125.4,10.2c-0.5,0-1.1,0.1-1.5,0.2c-0.5,0.1-0.9,0.3-1.3,0.5c-0.3,0.1-0.5,0.3-0.7,0.4
			v-1.1h-3l0,0v13.2h3h0v-6.9c0-0.5,0.1-1,0.3-1.4c0.2-0.5,0.4-0.9,0.7-1.2c0.3-0.3,0.7-0.5,1.1-0.7c0.5-0.2,1-0.2,1.5-0.2h1.9v-2.8
			H125.4z"/>
	</g>
	<g id="XMLID_1847_">
		<path id="XMLID_1842_" class="st1" d="M16,0C7.2,0,0,7.2,0,16c0,3.4,1,6.5,2.8,9.1L0.3,32H16c8.8,0,16-7.2,16-16S24.8,0,16,0z"/>
		<g id="XMLID_1813_">
			<path id="XMLID_1845_" class="st2" d="M7.5,10.5c0.2-0.6,0.8-1,1.4-1H22l-0.4,1.2c-0.2,0.6-0.8,1-1.4,1H7.1L7.5,10.5z"/>
			<path id="XMLID_1844_" class="st2" d="M21.6,20.4c-0.2,0.6-0.8,1-1.4,1H7.1l0.4-1.2c0.2-0.6,0.8-1,1.4-1H22L21.6,20.4z"/>
			<path id="XMLID_1843_" class="st2" d="M27.1,15.6c-0.2,0.6-0.8,1-1.4,1H7.1l0.4-1.2c0.2-0.6,0.8-1,1.4-1h18.6L27.1,15.6z"/>
		</g>
	</g>
</g>
<rect x="227.2" y="3.5" class="st3" width="1" height="25.7"/>
<g>
	<path class="st3" d="M251.7,20H243l-1.8,4.5h-2.4l7.4-18h2.3l7.5,18h-2.5L251.7,20z M250.9,17.9l-3.5-8.8l-3.5,8.8H250.9z"/>
	<path class="st3" d="M267.9,11.6c1,0.6,1.7,1.4,2.2,2.4c0.5,1,0.8,2.3,0.8,3.6c0,1.4-0.3,2.6-0.8,3.6c-0.5,1.1-1.3,1.9-2.2,2.5
		c-1,0.6-2,0.9-3.2,0.9c-0.9,0-1.7-0.2-2.5-0.6c-0.7-0.4-1.4-0.9-1.9-1.6v7h-2.3V10.9h2.2V13c0.5-0.8,1.1-1.3,1.9-1.7
		c0.8-0.4,1.6-0.6,2.5-0.6C265.9,10.7,267,11,267.9,11.6z M266.6,21.9c0.6-0.4,1.1-1,1.5-1.7c0.4-0.7,0.6-1.6,0.6-2.5
		c0-0.9-0.2-1.8-0.6-2.5c-0.4-0.7-0.9-1.3-1.5-1.7c-0.6-0.4-1.3-0.6-2.1-0.6c-0.8,0-1.5,0.2-2.1,0.6c-0.6,0.4-1.1,1-1.5,1.7
		c-0.4,0.7-0.6,1.6-0.6,2.5c0,0.9,0.2,1.8,0.5,2.5c0.4,0.7,0.9,1.3,1.5,1.7c0.6,0.4,1.4,0.6,2.1,0.6C265.3,22.5,266,22.3,266.6,21.9
		z"/>
	<path class="st3" d="M274.1,7.8c-0.3-0.3-0.4-0.7-0.4-1.1c0-0.4,0.1-0.8,0.4-1.1c0.3-0.3,0.7-0.5,1.1-0.5c0.4,0,0.8,0.2,1.1,0.4
		c0.3,0.3,0.4,0.7,0.4,1.1c0,0.5-0.1,0.9-0.4,1.2s-0.7,0.5-1.1,0.5C274.8,8.2,274.4,8.1,274.1,7.8z M274.1,10.9h2.3v13.6h-2.3V10.9z
		"/>
</g>
</svg>
